<svg id="Layer_1" data-name="Layer 1" xmlns="http://www.w3.org/2000/svg" viewBox="0 0 115.39 115.39"><defs><style>.cls-1{fill:none;stroke:#231f20;stroke-miterlimit:10;stroke-width:2px;}</style></defs><title>twitter</title><circle class="cls-1" cx="57.69" cy="57.69" r="56.69"/><path d="M338.13,370a14.37,14.37,0,0,1-6,7.69,17.12,17.12,0,0,0,2-.31c.66-.13,1.32-.29,2-.47s1.31-.39,2-.62,1.26-.48,1.93-.76a2.36,2.36,0,0,1-.35.59,28.3,28.3,0,0,1-3.76,4.34,26.5,26.5,0,0,1-2.71,2.25.36.36,0,0,0-.16.35c0,1,0,2.05,0,3.07a41.1,41.1,0,0,1-.72,6,42.53,42.53,0,0,1-1.35,5.1,41.81,41.81,0,0,1-6.25,12,40.57,40.57,0,0,1-2.8,3.34,37.81,37.81,0,0,1-8.62,6.9,37.22,37.22,0,0,1-6.3,2.94,40,40,0,0,1-6.53,1.72c-1,.18-2.08.32-3.13.42-.87.07-1.73.13-2.6.18-.68,0-1.36,0-2,0a36.44,36.44,0,0,1-3.91-.21,39.36,39.36,0,0,1-5.8-1,40.49,40.49,0,0,1-6.9-2.46,43.74,43.74,0,0,1-4.56-2.49.28.28,0,0,1-.16-.16,28.48,28.48,0,0,0,20.7-5.75c-.06-.11-.14-.07-.2-.08a13.36,13.36,0,0,1-4.89-1.08,14.09,14.09,0,0,1-7.47-7.39,9.52,9.52,0,0,1-.41-1c-.1-.29-.09-.3.21-.24a12.79,12.79,0,0,0,2.69.2,13.47,13.47,0,0,0,3-.4l.2-.06-.76-.21a14.11,14.11,0,0,1-9-7.53,13,13,0,0,1-1.26-4.28,16.38,16.38,0,0,1-.13-1.72c0-.28,0-.3.26-.17a14.18,14.18,0,0,0,4.1,1.43,13.39,13.39,0,0,0,1.66.19h.27c-.37-.28-.69-.51-1-.77a13.81,13.81,0,0,1-3.34-4,14.31,14.31,0,0,1-1.57-4.25,14.25,14.25,0,0,1,1.41-9.39c.25-.46.25-.47.59-.06a40.62,40.62,0,0,0,3,3.18,39.37,39.37,0,0,0,4.62,3.84,39.26,39.26,0,0,0,12.72,6,39.6,39.6,0,0,0,4,.87c1.05.17,2.1.31,3.16.38l.92.08c.24,0,.26,0,.21-.24a13.48,13.48,0,0,1-.31-2.83,14.17,14.17,0,0,1,7.87-12.77,13.74,13.74,0,0,1,4.55-1.35,14,14,0,0,1,9.56,2.27,13.12,13.12,0,0,1,2.29,1.91.35.35,0,0,0,.37.12,28.71,28.71,0,0,0,6.18-2c.78-.37,1.54-.77,2.29-1.2A.43.43,0,0,1,338.13,370Z" transform="translate(-248.31 -338.31)"/></svg>